<svg id="Camada_1" data-name="Camada 1" xmlns="http://www.w3.org/2000/svg" viewBox="0 0 243.74 175.94"><defs><style>.cls-1{fill:#5d1617;}.cls-2{fill:#fff;}.cls-3{fill:#761a1d;}</style></defs><title>Local</title><path class="cls-1" d="M190.15,45.72H214V160.36a8.51,8.51,0,0,0,8.51,8.51h0a8.51,8.51,0,0,0,8.51-8.51V28.69H173.12V119.5H86.86v68.1H40.32V150.15a8.51,8.51,0,0,0-8.52-8.52h0a8.51,8.51,0,0,0-8.51,8.52v54.48h80.59V136.52h86.27Zm0,0" transform="translate(-3.11 -28.69)"/><path class="cls-2" d="M245.86,183.76a3.43,3.43,0,0,1,0,4.82l-1.57,1.57a3.41,3.41,0,0,1-4.82,0L223,173.69l-16.45,16.46a3.41,3.41,0,0,1-4.82,0l-1.58-1.57a3.43,3.43,0,0,1,0-4.82l16.46-16.45-16.46-16.46a3.43,3.43,0,0,1,0-4.82l1.58-1.57a3.41,3.41,0,0,1,4.82,0L223,160.92l16.46-16.46a3.41,3.41,0,0,1,4.82,0l1.57,1.57a3.43,3.43,0,0,1,0,4.82L229.4,167.31Z" transform="translate(-3.11 -28.69)"/><path class="cls-2" d="M31.57,72.62c-15.69,0-28.46,13-28.46,29,0,8.94,4.52,19.79,13.43,32.24a142.36,142.36,0,0,0,13.22,15.89,2.54,2.54,0,0,0,3.57.05,128.83,128.83,0,0,0,13.26-15.5C55.51,122,60,111,60,101.59,60,85.61,47.26,72.62,31.57,72.62Zm0,41.48a13.92,13.92,0,1,1,13.91-13.92A13.93,13.93,0,0,1,31.57,114.1Z" transform="translate(-3.11 -28.69)"/><circle class="cls-3" cx="31.57" cy="100.18" r="13.91" transform="translate(-76.18 62.32) rotate(-67.5)"/></svg>