<svg id="Camada_1" data-name="Camada 1" xmlns="http://www.w3.org/2000/svg" viewBox="0 0 234.89 234.51"><defs><style>.cls-1{fill:#fff;}.cls-2{fill:#7a1a1d;}</style></defs><title>Ticket</title><path class="cls-1" d="M243.55,80.81v4.13c-1.63,2.35-3,5-5,7Q170.36,160.08,102,228.11c-3,3-6.08,5.55-10.31,6.4h-.93c-2.78-.58-5.4-1.44-7.48-3.58-4.07-4.15-8.16-8.28-12.33-12.32-3.09-3-3.73-6.53-2.78-10.51a22.75,22.75,0,0,1,1.15-3.47c6.87-17.06-6.64-33.77-23.25-32-3.59.38-7,1.87-10.57,2.79-3.8,1-7.18.48-10.08-2.53-4.45-4.62-9.09-9.07-13.59-13.66-4-4.12-4.23-8.89-.54-13.33.78-.94,1.65-1.8,2.52-2.66q23.48-23.4,47-46.8l85.17-84.81c2.71-2.7,5.39-5.43,8.14-8.08,3.93-3.76,9.48-5.63,14.6.09,3.41,3.82,7.16,7.32,10.84,10.89,4.59,4.47,5.81,9.68,3.71,15.71-.33.94-.64,1.88-.93,2.83A23.16,23.16,0,0,0,195,60.74c6.46,2.86,12.87,2.63,19.32,0,5.31-2.18,10-1.73,14.12,2.86,2.88,3.26,6.23,6.1,9.14,9.34C239.73,75.37,241.56,78.16,243.55,80.81Z" transform="translate(-8.66 0)"/><path class="cls-2" d="M77.57,142.21l-5.71,5.71,28.55,28.55-5.34,5.34L66.52,153.27,60.81,159l-5.34-5.34,16.76-16.76Z" transform="translate(-8.66 0)"/><path class="cls-2" d="M81.32,127.78l33.89,33.89L109.87,167,76,133.12Z" transform="translate(-8.66 0)"/><path class="cls-2" d="M105.71,121.93,101.78,118l-6.07,6.07,23.2,23.2,6.07-6.07-3.92-3.93,5.34-5.34,4.2,4.2a7.19,7.19,0,0,1,0,10.14L124,152.86a7.16,7.16,0,0,1-10.14,0L90.13,129.1a7.16,7.16,0,0,1,0-10.14l6.58-6.57a7.19,7.19,0,0,1,10.14,0l4.2,4.2Z" transform="translate(-8.66 0)"/><path class="cls-2" d="M131.38,113.8l-.87,4.16,14.21,14.2-5.3,5.3-33.89-33.89,5.29-5.3,13.3,13.29,2-10.09L116.9,92.2l5.34-5.35,9.32,9.32a7.49,7.49,0,0,1,2.06,6.72l-.64,2.92,3-.59a7.21,7.21,0,0,1,6.66,2l13.52,13.52-5.34,5.34-13.47-13.47Z" transform="translate(-8.66 0)"/><path class="cls-2" d="M136.63,83.15l5.12,5.12,5.71-5.71,5.34,5.34-5.71,5.71,12.74,12.75,11.42-11.42,5.35,5.34L165,111.93a7.15,7.15,0,0,1-10.14,0L131.06,88.18a7.15,7.15,0,0,1,0-10.14l11.65-11.65,5.34,5.35Z" transform="translate(-8.66 0)"/><path class="cls-2" d="M168.56,51.23l-5.71,5.71L191.4,85.48l-5.35,5.35L157.5,62.28,151.79,68l-5.34-5.34,16.76-16.77Z" transform="translate(-8.66 0)"/></svg>